<mxfile host="app.diagrams.net" modified="2022-09-14T08:22:10.882Z" agent="5.0 (Windows NT 10.0; Win64; x64) AppleWebKit/537.36 (KHTML, like Gecko) Chrome/105.0.0.0 Safari/537.36" etag="SZVsa2jh7I3SFinjn51b" version="20.3.0" type="github">
  <diagram id="zXVfPwqLUBEQSpaYSELe" name="第 1 页">
    <mxGraphModel dx="790" dy="419" grid="1" gridSize="10" guides="1" tooltips="1" connect="1" arrows="1" fold="1" page="1" pageScale="1" pageWidth="827" pageHeight="1169" math="0" shadow="0">
      <root>
        <mxCell id="0" />
        <mxCell id="1" parent="0" />
        <mxCell id="hary0V0ITaoQkaXgpvgy-1" value="" style="whiteSpace=wrap;html=1;aspect=fixed;" vertex="1" parent="1">
          <mxGeometry x="270" y="320" width="240" height="240" as="geometry" />
        </mxCell>
        <mxCell id="hary0V0ITaoQkaXgpvgy-2" value="查询选课结果" style="ellipse;whiteSpace=wrap;html=1;" vertex="1" parent="1">
          <mxGeometry x="290" y="380" width="80" height="40" as="geometry" />
        </mxCell>
        <mxCell id="hary0V0ITaoQkaXgpvgy-3" value="选课系统" style="ellipse;whiteSpace=wrap;html=1;" vertex="1" parent="1">
          <mxGeometry x="414" y="470" width="80" height="40" as="geometry" />
        </mxCell>
        <mxCell id="hary0V0ITaoQkaXgpvgy-4" value="课程表" style="ellipse;whiteSpace=wrap;html=1;" vertex="1" parent="1">
          <mxGeometry x="414" y="420" width="80" height="40" as="geometry" />
        </mxCell>
        <mxCell id="hary0V0ITaoQkaXgpvgy-5" value="冲突检查" style="ellipse;whiteSpace=wrap;html=1;" vertex="1" parent="1">
          <mxGeometry x="300" y="450" width="80" height="40" as="geometry" />
        </mxCell>
        <mxCell id="hary0V0ITaoQkaXgpvgy-6" value="" style="endArrow=classic;html=1;rounded=0;exitX=1;exitY=0.5;exitDx=0;exitDy=0;" edge="1" parent="1" source="hary0V0ITaoQkaXgpvgy-5" target="hary0V0ITaoQkaXgpvgy-4">
          <mxGeometry width="50" height="50" relative="1" as="geometry">
            <mxPoint x="560" y="560" as="sourcePoint" />
            <mxPoint x="610" y="510" as="targetPoint" />
          </mxGeometry>
        </mxCell>
        <mxCell id="hary0V0ITaoQkaXgpvgy-7" value="" style="endArrow=classic;html=1;rounded=0;exitX=1;exitY=0.5;exitDx=0;exitDy=0;" edge="1" parent="1" source="hary0V0ITaoQkaXgpvgy-5" target="hary0V0ITaoQkaXgpvgy-3">
          <mxGeometry width="50" height="50" relative="1" as="geometry">
            <mxPoint x="580" y="515" as="sourcePoint" />
            <mxPoint x="630" y="465" as="targetPoint" />
          </mxGeometry>
        </mxCell>
        <mxCell id="hary0V0ITaoQkaXgpvgy-9" value="教师" style="shape=umlActor;verticalLabelPosition=bottom;verticalAlign=top;html=1;outlineConnect=0;" vertex="1" parent="1">
          <mxGeometry x="180" y="440" width="30" height="60" as="geometry" />
        </mxCell>
        <mxCell id="hary0V0ITaoQkaXgpvgy-10" value="学生" style="shape=umlActor;verticalLabelPosition=bottom;verticalAlign=top;html=1;outlineConnect=0;" vertex="1" parent="1">
          <mxGeometry x="570" y="440" width="30" height="60" as="geometry" />
        </mxCell>
        <mxCell id="hary0V0ITaoQkaXgpvgy-13" value="" style="endArrow=classic;html=1;rounded=0;exitX=1;exitY=0.3333333333333333;exitDx=0;exitDy=0;exitPerimeter=0;" edge="1" parent="1" source="hary0V0ITaoQkaXgpvgy-9" target="hary0V0ITaoQkaXgpvgy-2">
          <mxGeometry width="50" height="50" relative="1" as="geometry">
            <mxPoint x="350" y="500" as="sourcePoint" />
            <mxPoint x="400" y="450" as="targetPoint" />
          </mxGeometry>
        </mxCell>
        <mxCell id="hary0V0ITaoQkaXgpvgy-14" value="" style="endArrow=classic;html=1;rounded=0;exitX=0;exitY=0.3333333333333333;exitDx=0;exitDy=0;exitPerimeter=0;entryX=1;entryY=0.5;entryDx=0;entryDy=0;" edge="1" parent="1" source="hary0V0ITaoQkaXgpvgy-10" target="hary0V0ITaoQkaXgpvgy-4">
          <mxGeometry width="50" height="50" relative="1" as="geometry">
            <mxPoint x="350" y="500" as="sourcePoint" />
            <mxPoint x="400" y="450" as="targetPoint" />
          </mxGeometry>
        </mxCell>
        <mxCell id="hary0V0ITaoQkaXgpvgy-15" value="" style="endArrow=classic;html=1;rounded=0;exitX=0;exitY=0.3333333333333333;exitDx=0;exitDy=0;exitPerimeter=0;" edge="1" parent="1" source="hary0V0ITaoQkaXgpvgy-10" target="hary0V0ITaoQkaXgpvgy-3">
          <mxGeometry width="50" height="50" relative="1" as="geometry">
            <mxPoint x="350" y="500" as="sourcePoint" />
            <mxPoint x="400" y="450" as="targetPoint" />
          </mxGeometry>
        </mxCell>
      </root>
    </mxGraphModel>
  </diagram>
</mxfile>
